<?xml version="1.0" encoding="UTF-8"?>
<svg id="Layer_1" xmlns="http://www.w3.org/2000/svg" version="1.1" viewBox="0 0 2100 2100">
  <defs>
    <style>
      .st0 { fill: #4f6b35; }
      .st1 { fill: #e59d4b; }
    </style>
  </defs>
  <g>
    <polygon class="st1" points="1078.01 985.56 908.09 984.49 886.94 821.74 856.25 820.43 876.04 984.28 689.32 983.1 691.52 1015.61 879.82 1015.49 902.05 1199.52 935.84 1198.1 912.11 1015.47 1083.32 1015.36 1078.01 985.56"/>
    <path class="st0" d="M1213.6,718.76c-11.1-10.75-22.63-21.16-34.59-31.21-11.94-10.04-24.17-19.61-36.68-28.7-12.5-9.09-25.29-17.71-38.35-25.85-13.07-8.15-26.43-15.83-40.06-23.04-13.66-7.22-27.6-13.96-41.82-20.22-10.16-4.47-20.39-8.66-30.69-12.56-10.32-3.92-20.72-7.55-31.18-10.9-10.49-3.36-21.06-6.44-31.69-9.23-10.67-2.8-21.42-5.32-32.23-7.54-.21-.04-.43-.09-.64-.12-.21-.04-.42-.07-.63-.11-.21-.03-.42-.06-.63-.09-.21-.03-.42-.05-.62-.07-2.71-.28-5.25-.09-7.52.51-2.27.6-4.26,1.61-5.87,2.95-1.62,1.34-2.85,3.02-3.6,4.96-.75,1.94-1.02,4.14-.69,6.53.3,2.16,1.06,4.29,2.2,6.29,1.14,2.01,2.66,3.89,4.46,5.57,1.8,1.68,3.89,3.15,6.17,4.33,2.28,1.18,4.75,2.07,7.32,2.59,49.38,9.9,96.63,26.33,140.61,47.98,43.65,21.48,84.56,48.34,121.47,79.43,37.03,31.19,70.43,66.98,98.82,106.34,28.78,39.91,52.71,83.93,70.17,131.12.91,2.47,2.21,4.79,3.79,6.89,1.58,2.1,3.44,3.98,5.48,5.55,2.04,1.57,4.26,2.84,6.55,3.72,2.29.88,4.66,1.37,7,1.4,2.78.03,5.23-.59,7.27-1.71,2.04-1.13,3.67-2.76,4.82-4.76,1.14-2,1.81-4.36,1.91-6.95.05-1.16-.04-2.38-.23-3.62l-1.23-4.68h0c-3.92-10.36-8.14-20.61-12.64-30.74-4.48-10.08-9.25-20.04-14.31-29.88-5.03-9.8-10.34-19.49-15.94-29.05-5.57-9.53-11.42-18.94-17.54-28.24-8.56-12.99-17.57-25.63-27.02-37.9-9.41-12.22-19.27-24.09-29.55-35.61-10.26-11.48-20.95-22.61-32.07-33.38Z"/>
    <path class="st0" d="M280.46,935.35c1.1,3.31,3.03,6.35,5.6,8.94,2.58,2.59,5.8,4.73,9.49,6.23,3.69,1.5,7.83,2.37,12.26,2.42,3.71.04,7.29-.5,10.6-1.53,3.31-1.03,6.35-2.54,9-4.44,2.64-1.9,4.89-4.18,6.62-6.75,1.72-2.57,2.93-5.42,3.48-8.47,10.56-57.91,31.91-110.45,61.41-156.26,28.36-44.04,64.25-81.84,105.45-112.41,39.68-29.45,84.39-52.27,132.38-67.67,46.43-14.9,96.16-22.94,147.83-23.34,2.63-.02,5.05-.45,7.19-1.23,2.13-.77,3.98-1.89,5.46-3.28,1.48-1.39,2.6-3.04,3.29-4.9.69-1.86.94-3.91.7-6.11-.27-2.42-1.13-4.77-2.43-6.96-1.3-2.18-3.06-4.2-5.13-5.95-2.07-1.75-4.47-3.24-7.06-4.36-2.59-1.12-5.38-1.88-8.23-2.18-.22-.02-.44-.04-.65-.06s-.44-.03-.66-.04c-.22-.01-.44-.02-.66-.03-.22,0-.44,0-.66,0-11.17-.03-22.29.27-33.37.9-11.14.63-22.24,1.59-33.28,2.88-11.11,1.3-22.18,2.94-33.18,4.92-11.08,1.99-22.11,4.33-33.07,7.03-15.52,3.81-30.77,8.29-45.71,13.42-15.1,5.19-29.9,11.06-44.37,17.61-14.63,6.62-28.93,13.94-42.88,21.97-14.11,8.12-27.85,16.95-41.21,26.51-13.52,9.68-26.47,19.98-38.82,30.89-12.51,11.05-24.4,22.73-35.66,35.03-11.39,12.45-22.13,25.54-32.17,39.25-10.17,13.89-19.62,28.41-28.33,43.56-6.27,10.91-12.1,22.06-17.48,33.45-5.43,11.49-10.39,23.21-14.89,35.16-4.54,12.05-8.6,24.34-12.18,36.83-3.6,12.6-6.71,25.43-9.31,38.45-.08.4-.1.8-.16,1.2l-.21,4.19c.11,1.77.46,3.49,1,5.14Z"/>
    <path class="st0" d="M272.33,1075.4c1.34,14.31,3.26,28.62,5.77,42.91,2.52,14.38,5.63,28.73,9.33,43.03,3.73,14.39,8.05,28.72,12.97,42.98,4.95,14.34,10.5,28.59,16.66,42.73,8.69,19.97,18.48,39.49,29.34,58.52,10.92,19.14,22.91,37.75,35.95,55.77,13.09,18.11,27.21,35.6,42.34,52.42,15.17,16.87,31.32,33.05,48.42,48.48,17.13,15.46,34.97,29.95,53.46,43.44,18.5,13.49,37.62,25.94,57.32,37.35,19.67,11.39,39.88,21.7,60.58,30.92,20.64,9.19,41.72,17.27,63.2,24.23,15.24,4.94,30.56,9.26,45.93,12.97,15.31,3.7,30.66,6.78,46.02,9.26,15.3,2.46,30.6,4.32,45.89,5.58,15.21,1.25,30.4,1.89,45.54,1.95.3,0,.59,0,.88-.01.29,0,.59-.02.88-.04s.58-.04.87-.07c.29-.03.57-.06.86-.1,3.77-.52,7.29-1.89,10.42-3.93,3.12-2.03,5.84-4.73,8.03-7.9,2.18-3.17,3.83-6.81,4.81-10.74.98-3.92,1.29-8.14.8-12.47-.44-3.91-1.51-7.57-3.08-10.87-1.57-3.29-3.63-6.22-6.07-8.67-2.44-2.45-5.26-4.42-8.34-5.79-3.08-1.37-6.42-2.15-9.91-2.21-68.38-1.13-135.86-15.47-199.45-41.22-64.25-26.03-123.55-63.32-174.98-109.53-51.2-46-93.85-100.15-125.5-159.79-31.05-58.52-51.09-121.52-58.26-186.35-.36-3.29-1.41-6.36-3.01-9.12-1.6-2.75-3.75-5.2-6.34-7.23-2.58-2.03-5.59-3.65-8.91-4.75-3.32-1.1-6.95-1.7-10.76-1.67-4.54.03-8.88.92-12.8,2.48-3.93,1.57-7.46,3.81-10.37,6.55-2.92,2.74-5.23,5.98-6.71,9.53-.74,1.78-1.28,3.63-1.58,5.53l-.23,4.55c.02.43,0,.86.04,1.3Z"/>
    <path class="st0" d="M1120.78,873.91c16.48,22.38,30.34,46.81,40.85,72.79.96,2.38,2.29,4.6,3.89,6.6,1.6,2,3.47,3.77,5.52,5.24,2.05,1.48,4.28,2.66,6.59,3.47,2.31.82,4.7,1.27,7.08,1.3h.01c3.17.04,5.98-.67,8.33-1.95,2.34-1.28,4.22-3.13,5.54-5.38,1.32-2.24,2.08-4.88,2.18-7.74.11-2.86-.44-5.94-1.74-9.08-5.96-14.45-12.84-28.54-20.58-42.2-7.69-13.58-16.24-26.75-25.6-39.43-9.32-12.63-19.45-24.8-30.36-36.44-10.87-11.61-22.53-22.71-34.92-33.22-12.37-10.5-25.23-20.19-38.48-29.06-13.26-8.87-26.94-16.93-40.96-24.14-14.05-7.22-28.46-13.61-43.15-19.11-14.75-5.53-29.8-10.17-45.08-13.91-.36-.09-.72-.17-1.08-.24-.36-.07-.72-.13-1.07-.19-.35-.06-.71-.1-1.06-.14-.35-.04-.7-.07-1.04-.1-2.82-.2-5.46.12-7.82.87-2.37.75-4.45,1.94-6.13,3.48-1.69,1.55-2.98,3.45-3.76,5.63-.78,2.18-1.04,4.64-.68,7.3v.02c.31,2.24,1.05,4.43,2.14,6.5,1.09,2.07,2.54,4.02,4.27,5.76,1.73,1.74,3.73,3.28,5.94,4.53,2.2,1.25,4.6,2.22,7.13,2.82,27.51,6.59,53.94,16.57,78.7,29.34,24.68,12.73,47.84,28.31,68.87,46.19,21.07,17.92,40.11,38.24,56.48,60.46Z"/>
    <path class="st0" d="M536.42,953.28c3.55,1.56,7.54,2.47,11.75,2.52h.04c3.16.04,6.19-.42,8.99-1.29,2.8-.87,5.37-2.16,7.62-3.79,2.24-1.63,4.15-3.6,5.63-5.83,1.48-2.23,2.53-4.73,3.06-7.42,5.73-29.24,16.19-56.27,30.5-80.48,14.01-23.71,31.7-44.71,52.26-62.48,20.15-17.41,43.07-31.73,68.06-42.5,24.53-10.58,51.1-17.75,79.09-21.09,2.53-.3,4.83-1,6.84-2.01,2.01-1.01,3.73-2.35,5.1-3.93,1.37-1.58,2.39-3.4,3.01-5.4.62-1.99.82-4.16.57-6.43v-.03c-.31-2.7-1.23-5.28-2.62-7.65-1.39-2.37-3.25-4.53-5.44-6.38-2.19-1.85-4.71-3.39-7.43-4.51-2.72-1.13-5.63-1.85-8.6-2.06-.36-.02-.73-.04-1.09-.05-.36,0-.73-.01-1.1,0-.37,0-.73.02-1.1.04-.37.02-.73.05-1.1.09-15.6,1.66-30.91,4.36-45.85,8.07-15.08,3.75-29.8,8.53-44.04,14.35-14.4,5.88-28.33,12.82-41.7,20.8-13.52,8.07-26.46,17.23-38.72,27.45-12.41,10.35-23.84,21.56-34.24,33.56-10.53,12.14-19.99,25.09-28.32,38.76-8.43,13.83-15.71,28.4-21.76,43.61-6.12,15.39-10.98,31.43-14.5,48.02-.77,3.61-.53,7.2.52,10.54,1.05,3.35,2.92,6.46,5.41,9.12,2.49,2.66,5.61,4.88,9.17,6.44Z"/>
    <path class="st0" d="M541.98,1128.09c7.39,17.72,16.23,35.01,26.45,51.73,10.27,16.81,21.93,33.01,34.9,48.46,13.02,15.5,27.33,30.22,42.88,44.01,15.57,13.81,31.99,26.35,49.11,37.56,17.11,11.2,34.89,21.04,53.17,29.48,18.24,8.41,36.95,15.41,55.98,20.94,18.94,5.51,38.16,9.55,57.51,12.11.46.06.91.11,1.36.14.45.04.9.06,1.35.07.45.01.89.01,1.33,0,.44-.01.88-.04,1.31-.07,3.53-.28,6.85-1.32,9.81-2.95,2.95-1.63,5.55-3.85,7.65-6.53,2.09-2.67,3.69-5.78,4.66-9.19.96-3.4,1.29-7.11.86-10.96v-.02c-.37-3.24-1.26-6.32-2.58-9.15-1.32-2.83-3.07-5.4-5.15-7.63-2.08-2.23-4.5-4.1-7.17-5.53-2.67-1.43-5.58-2.41-8.65-2.85-33.9-4.84-66.87-14.93-97.85-29.53-31.12-14.66-60.02-33.76-85.7-56.45-25.62-22.64-47.86-48.7-65.79-77.27-17.77-28.33-31.2-58.95-39.45-90.95-.75-2.9-2.02-5.58-3.71-7.96-1.69-2.39-3.79-4.49-6.21-6.23-2.41-1.74-5.14-3.11-8.07-4.04-2.93-.94-6.07-1.43-9.3-1.41h-.04c-4.32.03-8.36.96-11.92,2.58-3.57,1.63-6.68,3.95-9.12,6.76-2.45,2.82-4.25,6.12-5.19,9.71-.95,3.59-1.04,7.46-.09,11.39,4.43,18.23,10.34,36.21,17.69,53.81Z"/>
  </g>
  <path class="st0" d="M1850.54,570.97c-5.98.33-11.92,1.47-17.5,3.37-21.03,7.16-37.92,22.92-53.07,39.17-33.18,35.58-61.38,75.46-88.77,115.66-85.54,125.58-164.29,255.79-235.8,389.86,3.11-52.9-51.9-95.33-104.89-95.85s-101.43,29.51-141.96,63.64c-96.47,81.25-166.45,190.57-215.15,306.92-32.03,76.53-73.97,270.86,76.94,232.51,40.27-10.23,87.9-33.51,118.98-61.08,34.42-30.52,45-39.55,79.42-70.07,19.95-17.69,55.16-53.17,72.39-73.52,115.36-136.25,238.24-347.25,356.88-520.08,50.12-73.01,105.23-142.59,164.83-208.1,13.46-14.79,27.41-29.78,35.23-48.19,7.82-18.41,8.33-41.32-4.08-57-10.13-12.8-26.92-18.14-43.46-17.24ZM1421.89,1170.68l-2.86,8.57-61.44,104.31c-87.16,114.31-234.33,235.76-294.35,230.05-40.01-4.29-42.87-54.3-2.86-130.03,40.01-74.3,154.32-230.05,281.49-258.63,57.16-14.29,91.45,10,80.02,45.72Z"/>
</svg>
