<?xml version="1.0" encoding="UTF-8"?>
<svg id="Layer_1" xmlns="http://www.w3.org/2000/svg" version="1.1" viewBox="0 0 2100 2100">
  <!-- Generator: Adobe Illustrator 30.1.0, SVG Export Plug-In . SVG Version: 2.1.1 Build 136)  -->
  <defs>
    <style>
      .st0 {
        fill: #4f6b35;
      }

      .st1 {
        fill: #e59d4b;
      }
    </style>
  </defs>
  <g>
    <polygon class="st1" points="651.43 1022.63 532.51 1021.88 517.72 907.98 496.24 907.07 510.09 1021.73 379.42 1020.91 380.96 1043.66 512.73 1043.57 528.29 1172.35 551.94 1171.36 535.33 1043.56 655.15 1043.48 651.43 1022.63"/>
    <path class="st0" d="M746.32,835.92c-7.77-7.53-15.84-14.81-24.21-21.84-8.36-7.03-16.92-13.72-25.67-20.08-8.75-6.36-17.7-12.39-26.84-18.09-9.15-5.7-18.49-11.08-28.03-16.12-9.56-5.05-19.32-9.77-29.27-14.15-7.11-3.13-14.27-6.06-21.48-8.79-7.23-2.74-14.5-5.28-21.82-7.63-7.34-2.35-14.74-4.51-22.18-6.46-7.47-1.96-14.99-3.72-22.56-5.28-.15-.03-.3-.06-.45-.09-.15-.03-.3-.05-.44-.07-.15-.02-.29-.04-.44-.06-.15-.02-.29-.04-.44-.05-1.9-.2-3.68-.06-5.26.36-1.59.42-2.98,1.13-4.11,2.06-1.13.94-1.99,2.11-2.52,3.47-.53,1.36-.71,2.9-.48,4.57.21,1.51.74,3,1.54,4.4.8,1.4,1.86,2.72,3.12,3.9,1.26,1.18,2.72,2.21,4.32,3.03,1.6.83,3.33,1.45,5.13,1.81,34.56,6.93,67.62,18.43,98.4,33.58,30.55,15.03,59.17,33.83,85,55.58,25.91,21.83,49.29,46.87,69.15,74.42,20.14,27.93,36.88,58.74,49.11,91.76.64,1.73,1.55,3.35,2.65,4.82,1.1,1.47,2.41,2.78,3.83,3.89,1.43,1.1,2.98,1.99,4.58,2.6,1.6.61,3.26.96,4.9.98,1.94.02,3.66-.41,5.09-1.2,1.43-.79,2.57-1.93,3.37-3.33.8-1.4,1.26-3.05,1.33-4.86.03-.81-.03-1.66-.16-2.53l-.86-3.27h0c-2.75-7.25-5.7-14.42-8.85-21.51-3.14-7.05-6.47-14.02-10.01-20.91-3.52-6.86-7.24-13.64-11.15-20.33-3.9-6.67-7.99-13.26-12.28-19.76-5.99-9.09-12.3-17.93-18.91-26.52-6.59-8.55-13.48-16.86-20.68-24.92-7.18-8.03-14.66-15.82-22.44-23.36Z"/>
    <path class="st0" d="M93.3,987.49c.77,2.32,2.12,4.45,3.92,6.26,1.8,1.81,4.06,3.31,6.64,4.36,2.58,1.05,5.48,1.66,8.58,1.69,2.6.03,5.1-.35,7.42-1.07,2.31-.72,4.44-1.78,6.3-3.11,1.85-1.33,3.42-2.93,4.63-4.73,1.21-1.8,2.05-3.8,2.44-5.93,7.39-40.52,22.33-77.29,42.97-109.35,19.85-30.82,44.96-57.27,73.79-78.67,27.77-20.61,59.06-36.58,92.64-47.36,32.49-10.43,67.29-16.05,103.45-16.33,1.84-.01,3.54-.32,5.03-.86,1.49-.54,2.78-1.32,3.82-2.29,1.04-.97,1.82-2.13,2.3-3.43.48-1.3.66-2.74.49-4.27-.19-1.7-.79-3.34-1.7-4.87-.91-1.53-2.14-2.94-3.59-4.16-1.45-1.22-3.13-2.26-4.94-3.05-1.81-.79-3.76-1.32-5.76-1.53-.15-.02-.31-.03-.46-.04s-.31-.02-.46-.03c-.15,0-.31-.01-.46-.02-.15,0-.31,0-.46,0-7.82-.02-15.6.19-23.35.63-7.8.44-15.56,1.11-23.29,2.01-7.78.91-15.52,2.06-23.22,3.44-7.76,1.4-15.47,3.03-23.15,4.92-10.86,2.67-21.53,5.8-31.99,9.39-10.57,3.63-20.92,7.74-31.05,12.32-10.24,4.64-20.25,9.76-30,15.37-9.87,5.68-19.49,11.86-28.84,18.55-9.46,6.77-18.52,13.98-27.17,21.62-8.75,7.73-17.08,15.91-24.95,24.51-7.97,8.71-15.49,17.87-22.51,27.47-7.11,9.72-13.73,19.88-19.82,30.48-4.39,7.64-8.47,15.44-12.23,23.41-3.8,8.04-7.27,16.25-10.42,24.61-3.18,8.44-6.02,17.03-8.52,25.78-2.52,8.82-4.7,17.79-6.52,26.91-.06.28-.07.56-.11.84l-.15,2.93c.08,1.24.32,2.44.7,3.6Z"/>
    <path class="st0" d="M87.61,1085.5c.94,10.02,2.28,20.03,4.04,30.03,1.76,10.06,3.94,20.11,6.53,30.11,2.61,10.07,5.63,20.1,9.08,30.08,3.46,10.03,7.35,20.01,11.66,29.91,6.08,13.97,12.94,27.64,20.54,40.95,7.64,13.39,16.04,26.42,25.16,39.03,9.16,12.67,19.05,24.91,29.63,36.68,10.62,11.81,21.92,23.13,33.89,33.93,11.99,10.82,24.47,20.96,37.41,30.4,12.94,9.44,26.33,18.16,40.11,26.14,13.77,7.97,27.91,15.19,42.39,21.64,14.44,6.43,29.2,12.09,44.23,16.96,10.67,3.45,21.39,6.48,32.14,9.08,10.71,2.59,21.45,4.75,32.21,6.48,10.7,1.72,21.41,3.02,32.11,3.9,10.65.87,21.27,1.33,31.87,1.36.21,0,.41,0,.62,0,.21,0,.41-.02.61-.03s.41-.03.61-.05c.2-.02.4-.04.6-.07,2.64-.36,5.1-1.33,7.29-2.75,2.18-1.42,4.09-3.31,5.62-5.53,1.53-2.22,2.68-4.76,3.37-7.51.68-2.75.9-5.7.56-8.72-.31-2.74-1.06-5.3-2.15-7.61-1.1-2.3-2.54-4.35-4.25-6.07-1.71-1.71-3.68-3.09-5.84-4.05-2.16-.96-4.5-1.5-6.93-1.54-47.85-.79-95.08-10.82-139.58-28.85-44.97-18.21-86.46-44.31-122.45-76.65-35.83-32.19-65.68-70.08-87.83-111.82-21.73-40.95-35.75-85.04-40.77-130.41-.26-2.3-.99-4.45-2.11-6.38-1.12-1.93-2.63-3.64-4.43-5.06-1.81-1.42-3.91-2.55-6.24-3.33-2.32-.77-4.86-1.19-7.53-1.17-3.18.02-6.21.64-8.96,1.74-2.75,1.1-5.22,2.67-7.26,4.58-2.04,1.92-3.66,4.19-4.69,6.67-.52,1.24-.89,2.54-1.11,3.87l-.16,3.19c.01.3,0,.6.03.91Z"/>
    <path class="st0" d="M681.36,944.5c11.53,15.66,21.23,32.76,28.59,50.94.67,1.67,1.6,3.22,2.72,4.62,1.12,1.4,2.43,2.64,3.86,3.67,1.43,1.03,2.99,1.86,4.61,2.43,1.62.57,3.29.89,4.96.91h0c2.22.03,4.19-.47,5.83-1.37,1.64-.9,2.95-2.19,3.88-3.76.92-1.57,1.45-3.42,1.53-5.42.07-2-.31-4.16-1.21-6.35-4.17-10.11-8.99-19.97-14.4-29.53-5.38-9.5-11.37-18.72-17.92-27.59-6.52-8.84-13.61-17.36-21.24-25.5-7.61-8.12-15.76-15.89-24.44-23.25-8.66-7.35-17.66-14.13-26.93-20.34-9.28-6.21-18.85-11.85-28.66-16.89-9.83-5.06-19.92-9.52-30.2-13.37-10.32-3.87-20.86-7.12-31.55-9.73-.25-.06-.51-.12-.76-.17-.25-.05-.5-.09-.75-.13-.25-.04-.5-.07-.74-.1-.25-.03-.49-.05-.73-.07-1.97-.14-3.82.08-5.47.61-1.66.53-3.11,1.36-4.29,2.44-1.18,1.08-2.08,2.42-2.63,3.94-.55,1.53-.73,3.25-.48,5.11v.02c.22,1.56.73,3.1,1.5,4.55.77,1.45,1.78,2.81,2.99,4.03,1.21,1.22,2.61,2.3,4.15,3.17,1.54.88,3.22,1.55,4.99,1.98,19.25,4.61,37.75,11.59,55.08,20.54,17.27,8.91,33.48,19.81,48.19,32.32,14.74,12.54,28.07,26.76,39.52,42.31Z"/>
    <path class="st0" d="M272.42,1000.04c2.49,1.09,5.27,1.73,8.23,1.76h.03c2.21.03,4.33-.29,6.29-.9,1.96-.61,3.76-1.51,5.33-2.66,1.57-1.14,2.9-2.52,3.94-4.08,1.04-1.56,1.77-3.31,2.14-5.19,4.01-20.46,11.33-39.38,21.34-56.32,9.8-16.59,22.18-31.29,36.57-43.72,14.1-12.18,30.14-22.21,47.63-29.75,17.16-7.4,35.76-12.42,55.35-14.76,1.77-.21,3.38-.7,4.79-1.41,1.41-.71,2.61-1.64,3.57-2.75.96-1.1,1.68-2.38,2.11-3.78.43-1.4.58-2.91.4-4.5v-.02c-.22-1.89-.86-3.7-1.83-5.35-.97-1.66-2.27-3.17-3.81-4.46-1.53-1.29-3.3-2.37-5.2-3.16-1.9-.79-3.94-1.29-6.02-1.44-.25-.02-.51-.03-.77-.04-.26,0-.51,0-.77,0-.26,0-.51.01-.77.03-.26.02-.51.04-.77.06-10.91,1.16-21.63,3.05-32.08,5.64-10.55,2.62-20.85,5.97-30.82,10.04-10.08,4.12-19.83,8.97-29.18,14.56-9.46,5.65-18.52,12.06-27.1,19.21-8.68,7.24-16.69,15.09-23.96,23.48-7.37,8.5-13.99,17.56-19.82,27.12-5.9,9.68-10.99,19.87-15.23,30.52-4.28,10.77-7.68,21.99-10.15,33.6-.54,2.53-.37,5.04.36,7.38.73,2.34,2.04,4.52,3.79,6.38,1.75,1.86,3.93,3.41,6.42,4.51Z"/>
    <path class="st0" d="M276.31,1122.37c5.17,12.4,11.36,24.5,18.51,36.2,7.19,11.76,15.35,23.1,24.42,33.91,9.11,10.85,19.13,21.15,30.01,30.8,10.89,9.66,22.39,18.44,34.37,26.28,11.97,7.84,24.41,14.73,37.21,20.63,12.76,5.89,25.86,10.78,39.17,14.65,13.25,3.85,26.71,6.69,40.24,8.47.32.04.64.08.95.1.32.03.63.04.94.05.31,0,.62,0,.93,0,.31,0,.61-.02.92-.05,2.47-.2,4.8-.92,6.87-2.06,2.07-1.14,3.88-2.7,5.35-4.57,1.47-1.87,2.58-4.04,3.26-6.43.67-2.38.9-4.97.6-7.67h0c-.26-2.28-.88-4.44-1.8-6.42-.92-1.98-2.15-3.78-3.6-5.34-1.46-1.56-3.15-2.87-5.02-3.87-1.87-1-3.9-1.69-6.05-2-23.73-3.39-46.8-10.45-68.48-20.66-21.78-10.26-42-23.62-59.97-39.5-17.93-15.84-33.5-34.08-46.04-54.08-12.44-19.82-21.83-41.25-27.61-63.64-.52-2.03-1.41-3.9-2.59-5.57-1.18-1.67-2.66-3.14-4.35-4.36-1.69-1.21-3.6-2.18-5.65-2.83-2.05-.65-4.25-1-6.51-.99h-.03c-3.03.02-5.85.67-8.35,1.8-2.5,1.14-4.67,2.76-6.39,4.73-1.72,1.97-2.97,4.29-3.63,6.79-.66,2.51-.73,5.22-.06,7.97,3.1,12.76,7.24,25.34,12.38,37.65Z"/>
  </g>
  <g>
    <path class="st0" d="M678.56,1358.77c-32.98,38.28-67.72,64.19-88.33,64.19-42.4,0-53.59-38.87-25.32-101.29,28.27-62.42,97.76-149.58,149.58-149.58,27.09,0,38.28,21.2,41.81,41.81,35.92-60.66,123.08-226.73,163.12-226.73,21.2,0,31.8,21.79,17.67,34.74-38.87,37.69-165.48,220.25-210.83,315.65-11.19,22.38-6.48,38.28,8.83,38.28,32.39,0,97.17-63.01,134.86-106.59,10.6-12.96,20.61-8.24,10.6,8.24-29.44,50.65-110.12,145.46-160.18,145.46-40.63,0-49.47-32.39-41.81-64.19ZM716.25,1281.04l25.32-42.99,1.18-3.53c4.71-14.72-9.42-24.73-32.98-18.84-52.41,11.78-99.52,75.97-116.01,106.59-16.49,31.21-15.31,51.82,1.18,53.59,24.73,2.36,85.39-47.7,121.31-94.81Z"/>
    <path class="st0" d="M831.67,1341.11c15.9-35.33,42.99-80.09,67.13-119.55,12.37-20.61,37.1-49.47,57.12-49.47,22.97,0,25.32,24.73,12.37,39.46-28.27,32.39-81.27,95.99-95.4,126.02-10.6,22.38-5.89,38.28,9.42,38.28,32.39,0,97.17-63.01,134.86-106.59,10.6-12.96,20.61-8.24,10.6,8.24-30.03,50.65-110.12,145.46-160.77,145.46s-51.23-46.52-35.33-81.86ZM978.89,1104.96c0-17.67,14.13-32.39,32.39-32.39s31.8,14.72,31.8,32.39-14.13,32.39-31.8,32.39-32.39-14.72-32.39-32.39Z"/>
    <path class="st0" d="M985.95,1321.67c28.27-62.42,97.17-149.58,148.99-149.58,27.68,0,38.87,21.79,41.81,42.4,10.6-15.9,31.21-42.4,47.7-42.4s27.09,20.61,14.13,34.75c-28.86,32.39-77.73,100.7-91.87,130.74-10.6,22.38-6.48,38.28,9.42,38.28,32.39,0,97.17-63.01,134.27-106.59,11.19-12.96,20.61-8.24,11.19,8.24-30.03,50.65-110.12,145.46-160.77,145.46-40.04,0-48.88-32.39-41.81-63.6-32.98,38.28-67.72,63.6-88.33,63.6-41.81,0-53.59-38.87-24.73-101.29ZM1137.3,1279.86l22.97-38.28,2.94-7.66c4.71-14.13-8.83-24.15-32.98-18.26-52.41,11.78-99.52,75.97-116.01,106.59-15.9,31.21-14.72,51.82,1.18,53.59,25.32,2.36,86.57-48.88,121.9-95.99Z"/>
    <path class="st0" d="M1250.37,1341.11c15.9-35.33,43.58-80.09,67.13-119.55,31.8-51.82,126.02-234.97,167.84-234.97,21.79,0,31.8,21.79,17.67,35.33-38.28,37.69-164.89,220.25-210.83,315.65-11.19,22.38-6.48,38.28,8.83,38.28,32.98,0,97.17-63.01,134.86-106.59,11.19-12.96,20.61-8.24,11.19,8.24-30.03,50.65-110.71,145.46-160.77,145.46s-51.82-46.52-35.92-81.86Z"/>
    <path class="st0" d="M1415.84,1304.01c23.56-59.48,102.47-131.91,160.77-131.91,61.25,0,60.66,70.67,9.42,103.65-35.33,22.97-82.45,32.98-126.02,28.86-7.66,35.33,5.89,67.72,32.39,71.26,53,7.66,134.86-52.41,181.38-106.59,10.6-12.96,20.61-8.24,10.6,8.24-35.33,60.07-126.61,145.46-207.29,145.46-58.89,0-84.8-58.89-61.25-118.96ZM1550.11,1263.37c41.22-25.91,37.1-56.53,20.02-60.66-21.2-4.71-52.41,9.42-88.92,57.12-6.48,8.24-11.78,18.26-15.31,26.5,20.61.59,51.82-2.94,84.21-22.97Z"/>
    <path class="st0" d="M1756.22,1358.77c-32.98,38.28-67.72,64.19-88.33,64.19-42.4,0-53.59-38.87-25.32-101.29,28.27-62.42,97.76-149.58,149.58-149.58,27.09,0,38.28,21.2,41.81,41.81,35.92-60.66,123.08-226.73,163.12-226.73,21.2,0,31.8,21.79,17.67,34.74-38.87,37.69-165.48,220.25-210.83,315.65-11.19,22.38-6.48,38.28,8.83,38.28,32.39,0,97.17-63.01,134.86-106.59,10.6-12.96,20.61-8.24,10.6,8.24-29.44,50.65-110.12,145.46-160.18,145.46-40.63,0-49.47-32.39-41.81-64.19ZM1793.91,1281.04l25.32-42.99,1.18-3.53c4.71-14.72-9.42-24.73-32.98-18.84-52.41,11.78-99.52,75.97-116.01,106.59-16.49,31.21-15.31,51.82,1.18,53.59,24.73,2.36,85.39-47.7,121.31-94.81Z"/>
  </g>
</svg>